<svg version="1.2" xmlns="http://www.w3.org/2000/svg" viewBox="0 0 640 512" width="640" height="512">
	<title>discord-brands-solid-svg</title>
	<defs>
		<clipPath clipPathUnits="userSpaceOnUse" id="cp1">
			<path d="m611.5 404.3q-0.02 0.21-0.08 0.41-0.06 0.2-0.16 0.38-0.11 0.18-0.25 0.34-0.14 0.15-0.31 0.27-16.65 12.31-34.29 23.17-17.65 10.85-36.15 20.16-18.5 9.32-37.72 17.02-19.23 7.71-39.04 13.75-0.28 0.09-0.58 0.08-0.3 0-0.58-0.09-0.28-0.1-0.53-0.27-0.24-0.18-0.41-0.42-4.19-5.81-8.17-11.78-3.97-5.96-7.72-12.07-3.76-6.11-7.29-12.35-3.52-6.24-6.82-12.6-0.17-0.36-0.19-0.75-0.02-0.4 0.12-0.77 0.15-0.37 0.42-0.65 0.28-0.28 0.65-0.43 5.95-2.23 11.81-4.72 5.86-2.48 11.6-5.21 5.75-2.73 11.37-5.7 5.63-2.97 11.12-6.17 0.39-0.24 0.63-0.64 0.24-0.4 0.27-0.86 0.03-0.46-0.15-0.88-0.19-0.43-0.55-0.72c-3.1-2.3-6.2-4.8-9.1-7.2q-0.2-0.16-0.43-0.25-0.24-0.1-0.49-0.12-0.25-0.03-0.5 0.01-0.25 0.05-0.48 0.16c-95.1 43.9-199.3 43.9-295.5 0q-0.23-0.1-0.49-0.13-0.25-0.03-0.5 0-0.26 0.04-0.49 0.15-0.23 0.11-0.42 0.28c-2.9 2.4-6 4.8-9.1 7.1q-0.36 0.29-0.55 0.72-0.18 0.42-0.15 0.88 0.03 0.46 0.27 0.86 0.24 0.4 0.63 0.64 5.51 3.19 11.14 6.15 5.63 2.97 11.38 5.71 5.74 2.74 11.59 5.25 5.85 2.51 11.79 4.79 0.37 0.15 0.65 0.43 0.27 0.28 0.42 0.65 0.14 0.37 0.12 0.77-0.02 0.39-0.19 0.75-3.24 6.4-6.74 12.65-3.5 6.26-7.25 12.37-3.76 6.11-7.76 12.05-4.01 5.95-8.25 11.73-0.17 0.24-0.41 0.42-0.25 0.17-0.53 0.27-0.28 0.09-0.58 0.09-0.3 0.01-0.58-0.08-19.75-6.07-38.93-13.79-19.17-7.72-37.62-17.03-18.44-9.31-36.04-20.15-17.59-10.84-34.21-23.13-0.17-0.12-0.31-0.28-0.13-0.16-0.24-0.34-0.1-0.18-0.16-0.37-0.07-0.2-0.09-0.41c-10.2-109.7 10.7-220.7 86.9-334.6q0.07-0.12 0.16-0.22 0.08-0.1 0.18-0.19 0.11-0.09 0.22-0.17 0.12-0.07 0.24-0.12 14.29-6.56 28.98-12.18 14.69-5.62 29.71-10.27 15.03-4.65 30.32-8.32 15.29-3.66 30.79-6.33 0.28-0.04 0.55 0 0.28 0.04 0.54 0.16 0.25 0.12 0.46 0.31 0.21 0.19 0.35 0.43 2.1 3.72 4.09 7.49 1.99 3.77 3.88 7.6 1.89 3.83 3.67 7.71 1.79 3.87 3.46 7.8 16.68-2.53 33.5-3.8 16.83-1.27 33.7-1.27 16.87 0 33.7 1.27 16.82 1.27 33.5 3.8 1.67-3.92 3.43-7.79 1.77-3.87 3.63-7.7 1.87-3.82 3.83-7.6 1.96-3.78 4.01-7.51 0.14-0.25 0.34-0.44 0.21-0.19 0.46-0.32 0.26-0.12 0.54-0.15 0.28-0.04 0.56 0.01 15.47 2.68 30.74 6.35 15.27 3.67 30.26 8.32 15 4.66 29.66 10.27 14.67 5.61 28.94 12.16 0.13 0.05 0.24 0.12 0.12 0.07 0.22 0.16 0.11 0.09 0.19 0.19 0.09 0.11 0.15 0.23c66.4 97.7 99.2 207.8 87 334.5zm-336.2-126c0.5-32.4-23.1-59.2-52.8-59.2-29.4 0-52.8 26.7-52.8 59.3 0 32.6 23.8 59.2 52.8 59.2 29.4 0 52.8-26.6 52.8-59.3zm195.4 0c0.5-32.4-23.1-59.2-52.8-59.2-29.5 0-52.8 26.7-52.8 59.3 0 32.6 23.8 59.2 52.8 59.2 29.6 0 52.8-26.6 52.8-59.3z"/>
		</clipPath>
	</defs>
	<style>
		.s0 { fill: #000000 } 
	</style>
	<g clip-path="url(#cp1)">
		<path id="Layer" fill-rule="evenodd" class="s0" d="m611.5 404.3q0 0.2-0.1 0.4 0 0.2-0.1 0.4-0.1 0.2-0.3 0.3-0.1 0.2-0.3 0.3-16.7 12.3-34.3 23.2-17.6 10.8-36.1 20.1-18.5 9.3-37.8 17.1-19.2 7.7-39 13.7-0.3 0.1-0.6 0.1-0.3 0-0.6-0.1-0.2-0.1-0.5-0.3-0.2-0.2-0.4-0.4-4.2-5.8-8.2-11.8-3.9-5.9-7.7-12.1-3.7-6.1-7.3-12.3-3.5-6.2-6.8-12.6-0.2-0.4-0.2-0.8 0-0.3 0.1-0.7 0.2-0.4 0.5-0.7 0.2-0.3 0.6-0.4 6-2.2 11.8-4.7 5.9-2.5 11.6-5.2 5.8-2.8 11.4-5.7 5.6-3 11.1-6.2 0.4-0.2 0.6-0.6 0.3-0.4 0.3-0.9 0-0.5-0.2-0.9-0.1-0.4-0.5-0.7c-3.1-2.3-6.2-4.8-9.1-7.2q-0.2-0.2-0.4-0.3-0.3 0-0.5-0.1-0.3 0-0.5 0-0.3 0.1-0.5 0.2c-95.1 43.9-199.3 43.9-295.5 0q-0.2-0.1-0.5-0.1-0.2-0.1-0.5 0-0.2 0-0.5 0.1-0.2 0.1-0.4 0.3c-2.9 2.4-6 4.8-9.1 7.1q-0.4 0.3-0.5 0.7-0.2 0.4-0.2 0.9 0 0.5 0.3 0.9 0.2 0.4 0.6 0.6 5.5 3.2 11.1 6.2 5.7 2.9 11.4 5.7 5.8 2.7 11.6 5.2 5.9 2.5 11.8 4.8 0.4 0.1 0.6 0.4 0.3 0.3 0.5 0.7 0.1 0.4 0.1 0.7 0 0.4-0.2 0.8-3.2 6.4-6.7 12.7-3.5 6.2-7.3 12.3-3.7 6.1-7.8 12.1-4 5.9-8.2 11.7-0.2 0.2-0.4 0.4-0.3 0.2-0.5 0.3-0.3 0.1-0.6 0.1-0.3 0-0.6-0.1-19.8-6.1-38.9-13.8-19.2-7.7-37.6-17-18.5-9.3-36.1-20.2-17.6-10.8-34.2-23.1-0.2-0.1-0.3-0.3-0.1-0.1-0.2-0.3-0.2-0.2-0.2-0.4-0.1-0.2-0.1-0.4c-10.2-109.7 10.7-220.7 86.9-334.6q0.1-0.1 0.2-0.2 0-0.1 0.1-0.2 0.1-0.1 0.3-0.2 0.1 0 0.2-0.1 14.3-6.6 29-12.2 14.7-5.6 29.7-10.2 15-4.7 30.3-8.4 15.3-3.6 30.8-6.3 0.3 0 0.6 0 0.2 0 0.5 0.2 0.2 0.1 0.4 0.3 0.3 0.2 0.4 0.4 2.1 3.7 4.1 7.5 2 3.8 3.9 7.6 1.9 3.8 3.6 7.7 1.8 3.9 3.5 7.8 16.7-2.5 33.5-3.8 16.8-1.3 33.7-1.3 16.9 0 33.7 1.3 16.8 1.3 33.5 3.8 1.7-3.9 3.4-7.8 1.8-3.9 3.7-7.7 1.8-3.8 3.8-7.6 1.9-3.8 4-7.5 0.1-0.2 0.3-0.4 0.2-0.2 0.5-0.4 0.3-0.1 0.5-0.1 0.3-0.1 0.6 0 15.5 2.7 30.7 6.4 15.3 3.6 30.3 8.3 15 4.6 29.7 10.2 14.6 5.7 28.9 12.2 0.1 0 0.2 0.1 0.2 0.1 0.3 0.2 0.1 0.1 0.2 0.2 0 0.1 0.1 0.2c66.4 97.7 99.2 207.8 87 334.5zm-336.2-126c0.5-32.4-23.1-59.2-52.8-59.2-29.4 0-52.8 26.7-52.8 59.3 0 32.6 23.8 59.2 52.8 59.2 29.4 0 52.8-26.6 52.8-59.3zm195.4 0c0.5-32.4-23.1-59.2-52.8-59.2-29.5 0-52.8 26.7-52.8 59.3 0 32.6 23.8 59.2 52.8 59.2 29.6 0 52.8-26.6 52.8-59.3z"/>
		<rect width="640" height="512" id="Relleno de color sólido 1" style="fill: #ffffff"/>
	</g>
	<g id="Carpeta 1">
	</g>
</svg>